<svg height="420pt" viewBox="-49 0 420 420.00403" width="420pt" xmlns="http://www.w3.org/2000/svg"><path d="m312.800781 117.804688v.199218h-68.097656c-22.09375.007813-40.007813-17.90625-40-40v-67.898437h.199219zm0 0" fill="#f8ec7d"/><path d="m312.800781 119.605469v250.296875c.007813 22.09375-17.90625 40.007812-40 40h-222.796875c-22.097656.007812-40.007812-17.90625-40-40v-320c-.007812-22.09375 17.902344-40.003906 40-40h152.597656l2 .203125v67.898437c-.003906 22.09375 17.90625 40.007813 40 40h68.101563v1.601563zm0 0" fill="#e48e66"/><path d="m141.203125 11.203125h-91.199219c-22.097656-.003906-40.007812 17.90625-40 40v318.699219c-.007812 22.09375 17.902344 40.007812 40 40h91.097656v-398.699219zm0 0" fill="#d18162"/><g fill="#f8ec7d"><path d="m172.203125 192.902344h-88.101563c-5.523437 0-10-4.476563-10-10 0-5.519532 4.476563-10 10-10h88.101563c5.523437 0 10 4.480468 10 10 0 5.523437-4.476563 10-10 10zm0 0"/><path d="m258.703125 268.605469h-174.601563c-5.523437 0-10-4.480469-10-10 0-5.523438 4.476563-10 10-10h174.601563c5.523437 0 10 4.476562 10 10 0 5.519531-4.476563 10-10 10zm0 0"/><path d="m258.703125 344.203125h-174.601563c-5.523437 0-10-4.476563-10-10s4.476563-10 10-10h174.601563c5.523437 0 10 4.476563 10 10s-4.476563 10-10 10zm0 0"/></g><path d="m211.902344 3.105469-.101563-.101563c-1.886719-1.945312-4.488281-3.0312498-7.199219-2.99999975-.335937-.01562505-.671874.01562495-1 .10156275-.300781 0-.699218-.10156275-1-.10156275h-152.597656c-27.613281.01171875-49.9921872 22.39062475-49.99999975 49.99999975v320c.00781255 27.609375 22.38671875 49.988282 49.99999975 50h222.699219c27.609375-.011718 49.988281-22.390625 50-50v-252.199218c-.019531-2.652344-1.058594-5.195313-2.902344-7.101563zm2.699218 30.898437 74.199219 74h-44.199219c-16.546874-.046875-29.953124-13.453125-30-30zm88.199219 335.898438c-.046875 16.550781-13.449219 29.953125-30 30h-222.796875c-16.550781-.046875-29.953125-13.449219-30-30v-320c.046875-16.546875 13.449219-29.949219 30-30h144.597656v58.101562c.011719 27.609375 22.390626 49.988282 50 50h58.101563v241.898438zm0 0" fill="#63316d"/></svg>